<?xml version="1.0" encoding="utf-8"?>
<!-- Generator: Adobe Illustrator 24.2.3, SVG Export Plug-In . SVG Version: 6.00 Build 0)  -->
<svg version="1.1" id="Layer_1" xmlns="http://www.w3.org/2000/svg" xmlns:xlink="http://www.w3.org/1999/xlink" x="0px" y="0px"
	 viewBox="0 0 1920 2240" style="enable-background:new 0 0 1920 2240;" xml:space="preserve">
<style type="text/css">
	.st0{display:none;}
	.st1{display:inline;fill:#0C0C0C;}
	.st2{fill:#4036B1;}
	.st3{fill:#0B0E16;stroke:#4036B1;stroke-width:2;stroke-miterlimit:10;}
	.st4{fill:#343DC0;}
	.st5{fill:#0B0E16;stroke:#343DC0;stroke-width:2;stroke-miterlimit:10;}
	.st6{fill:#6E0E81;}
	.st7{fill:#0B0E16;stroke:#72057D;stroke-width:2;stroke-miterlimit:10;}
	.st8{fill:#94005A;}
	.st9{fill:#0B0E16;stroke:#94005A;stroke-width:2;stroke-miterlimit:10;}
	.st10{fill:#84006B;}
	.st11{fill:#0B0E16;stroke:#84006B;stroke-width:2;stroke-miterlimit:10;}
	.st12{fill:#72057D;}
	.st13{fill:#671889;}
	.st14{fill:#0B0E16;stroke:#671889;stroke-width:2;stroke-miterlimit:10;}
	.st15{fill:#4C2EA5;}
	.st16{fill:#0B0E16;stroke:#4C2EA5;stroke-width:2;stroke-miterlimit:10;}
	.st17{display:inline;fill:#4C2EA5;}
	.st18{display:inline;fill:#0B0E16;stroke:#4C2EA5;stroke-width:2;stroke-miterlimit:10;}
	.st19{fill:#502CA1;}
	.st20{fill:#7D0073;}
	.st21{fill:#4630AA;}
	.st22{fill:#5C2295;}
	.st23{fill:#93005A;}
	.st24{fill:#5A2495;}
	.st25{fill:#3939B9;}
</style>
<g class="st0">
	<rect x="0.01" class="st1" width="1920" height="2240"/>
</g>
<g>
	<path class="st2" d="M1874.11,523.41c-28.79,0-52.12,23.34-52.12,52.12s23.34,52.12,52.12,52.12s52.12-23.34,52.12-52.12
		S1902.9,523.41,1874.11,523.41z M1874.11,607.17c-17.47,0-31.63-14.16-31.63-31.63c0-17.47,14.16-31.63,31.63-31.63
		c17.47,0,31.63,14.16,31.63,31.63C1905.74,593.01,1891.58,607.17,1874.11,607.17z"/>
	<path class="st3" d="M1887.1,523.41c-28.79,0-52.12,23.34-52.12,52.12s23.34,52.12,52.12,52.12s52.12-23.34,52.12-52.12
		S1915.89,523.41,1887.1,523.41z M1887.1,607.17c-17.47,0-31.63-14.16-31.63-31.63c0-17.47,14.16-31.63,31.63-31.63
		c17.47,0,31.63,14.16,31.63,31.63C1918.73,593.01,1904.57,607.17,1887.1,607.17z"/>
</g>
<g>
	<path class="st4" d="M536.07,85.41c-23.78-16.23-56.21-10.1-72.44,13.68c-16.23,23.78-10.1,56.21,13.68,72.44
		c23.78,16.23,56.21,10.1,72.44-13.68C565.98,134.06,559.85,101.63,536.07,85.41z M488.86,154.6c-14.43-9.85-18.15-29.53-8.3-43.96
		c9.85-14.43,29.53-18.15,43.96-8.3c14.43,9.85,18.15,29.53,8.3,43.96C522.98,160.73,503.3,164.44,488.86,154.6z"/>
	<path class="st5" d="M546.8,92.73c-23.78-16.23-56.21-10.1-72.44,13.68c-16.23,23.78-10.1,56.21,13.68,72.44
		s56.21,10.1,72.44-13.68S570.58,108.95,546.8,92.73z M499.6,161.92c-14.43-9.85-18.15-29.53-8.3-43.96
		c9.85-14.43,29.53-18.15,43.96-8.3c14.43,9.85,18.15,29.53,8.3,43.96C533.71,168.05,514.03,171.76,499.6,161.92z"/>
</g>
<g>
	<path class="st6" d="M550.5,996.75c-28.79,0-52.12,23.34-52.12,52.13c0,28.79,23.34,52.12,52.12,52.12s52.12-23.34,52.12-52.12
		C602.63,1020.09,579.29,996.75,550.5,996.75z M550.5,1080.51c-17.47,0-31.63-14.16-31.63-31.63c0-17.47,14.16-31.63,31.63-31.63
		c17.47,0,31.63,14.16,31.63,31.63C582.14,1066.35,567.97,1080.51,550.5,1080.51z"/>
	<path class="st7" d="M543.69,989.94c-28.79,0-52.12,23.34-52.12,52.12s23.34,52.12,52.12,52.12s52.12-23.34,52.12-52.12
		S572.48,989.94,543.69,989.94z M543.69,1073.7c-17.47,0-31.63-14.16-31.63-31.63s14.16-31.63,31.63-31.63
		c17.47,0,31.63,14.16,31.63,31.63S561.17,1073.7,543.69,1073.7z"/>
</g>
<g>
	<path class="st8" d="M1314.64,2106.64c-23.83-16.15-56.24-9.93-72.39,13.9c-16.15,23.83-9.93,56.24,13.9,72.39
		s56.24,9.93,72.39-13.9S1338.47,2122.8,1314.64,2106.64z M1267.64,2175.97c-14.46-9.8-18.24-29.47-8.44-43.94
		c9.8-14.46,29.47-18.24,43.94-8.44c14.46,9.8,18.24,29.47,8.44,43.94C1301.78,2182,1282.11,2185.78,1267.64,2175.97z"/>
	<path class="st9" d="M1312.83,2097.19c-23.83-16.15-56.24-9.93-72.39,13.9s-9.93,56.24,13.9,72.39
		c23.83,16.15,56.24,9.93,72.39-13.9C1342.88,2145.75,1336.65,2113.34,1312.83,2097.19z M1265.83,2166.52
		c-14.46-9.8-18.24-29.47-8.44-43.94c9.8-14.46,29.47-18.24,43.94-8.44c14.46,9.8,18.24,29.47,8.44,43.94
		C1299.96,2172.54,1280.29,2176.32,1265.83,2166.52z"/>
</g>
<g>
	<path class="st10" d="M1532.18,1237.59l-113.37,38.66l90.17,78.85L1532.18,1237.59z M1508.89,1264.22l-11.33,57.39l-44.04-38.51
		L1508.89,1264.22z"/>
	<path class="st11" d="M1527.49,1245.78l-113.37,38.66l90.17,78.85L1527.49,1245.78z M1504.2,1272.41l-11.33,57.39l-44.04-38.51
		L1504.2,1272.41z"/>
</g>
<g>
	<path class="st12" d="M-41.63,1040.11l65.46,100.31l54.14-106.84L-41.63,1040.11z M-10.07,1056.1l58.41-3.19l-26.44,52.18
		L-10.07,1056.1z"/>
	<path class="st7" d="M-30.43,1042.36l65.46,100.31l54.14-106.84L-30.43,1042.36z M1.13,1058.35l58.41-3.19l-26.44,52.18
		L1.13,1058.35z"/>
</g>
<g>
	<path class="st8" d="M284.49,1501.22l72.61,60.49l60.49-72.61l-72.61-60.49L284.49,1501.22z M393.29,1491.31l-38.4,46.1l-46.1-38.4
		l38.4-46.1L393.29,1491.31z"/>
	<path class="st9" d="M288.16,1491.69l72.61,60.49l60.49-72.61l-72.61-60.49L288.16,1491.69z M396.96,1481.78l-38.4,46.1l-46.1-38.4
		l38.4-46.1L396.96,1481.78z"/>
</g>
<g>
	<path class="st10" d="M1855.2,1308.27l72.61,60.49l60.49-72.61l-72.61-60.49L1855.2,1308.27z M1964,1298.37l-38.4,46.1l-46.1-38.4
		l38.4-46.1L1964,1298.37z"/>
	<path class="st11" d="M1857.04,1316.87l72.61,60.49l60.49-72.61l-72.61-60.49L1857.04,1316.87z M1965.83,1306.97l-38.4,46.1
		l-46.1-38.4l38.4-46.1L1965.83,1306.97z"/>
</g>
<g>
	<path class="st8" d="M678.56,2173.45l-56.06-76.08l-76.08,56.06l56.06,76.08L678.56,2173.45z M570.54,2157.08l48.3-35.59
		l35.59,48.3l-48.3,35.59L570.54,2157.08z"/>
	<path class="st9" d="M678.83,2164.66l-56.06-76.08l-76.08,56.06l56.06,76.08L678.83,2164.66z M570.82,2148.29l48.3-35.59
		l35.59,48.3l-48.3,35.59L570.82,2148.29z"/>
</g>
<g>
	<path class="st4" d="M1768.07,100.74l-56.06-76.08l-76.08,56.06L1692,156.8L1768.07,100.74z M1660.06,84.37l48.3-35.59l35.59,48.3
		l-48.3,35.59L1660.06,84.37z"/>
	<path class="st5" d="M1768.35,91.95l-56.06-76.08l-76.08,56.06l56.06,76.08L1768.35,91.95z M1660.33,75.58l48.3-35.59l35.59,48.3
		l-48.3,35.59L1660.33,75.58z"/>
</g>
<g>
	<path class="st13" d="M1543.55,970.96c14.95,9.04,19.75,28.48,10.72,43.44l17.54,10.6c14.89-24.64,6.98-56.68-17.66-71.57
		c-24.64-14.89-56.68-6.98-71.57,17.66l17.54,10.6C1509.15,966.72,1528.6,961.92,1543.55,970.96z"/>
	<path class="st14" d="M1537.09,967.47c14.95,9.04,19.75,28.48,10.72,43.44l17.54,10.6c14.89-24.64,6.98-56.68-17.66-71.57
		s-56.68-6.98-71.57,17.66l17.54,10.6C1502.69,963.23,1522.13,958.43,1537.09,967.47z"/>
</g>
<g>
	<path class="st8" d="M518.09,1820.95c16.86-4.58,34.24,5.38,38.82,22.24l19.77-5.37c-7.54-27.78-36.18-44.19-63.96-36.65
		c-27.78,7.54-44.19,36.18-36.65,63.96l19.77-5.37C491.28,1842.91,501.23,1825.53,518.09,1820.95z"/>
	<path class="st9" d="M511.11,1823.22c16.86-4.58,34.24,5.38,38.82,22.24l19.77-5.37c-7.54-27.78-36.18-44.19-63.96-36.65
		s-44.19,36.18-36.65,63.96l19.77-5.37C484.29,1845.17,494.25,1827.79,511.11,1823.22z"/>
</g>
<g>
	<path class="st4" d="M228.18,412.89c-12.32,12.38-32.35,12.44-44.74,0.11l-14.45,14.53c20.41,20.31,53.41,20.22,73.72-0.18
		s20.22-53.41-0.18-73.72l-14.45,14.53C240.45,380.47,240.5,400.5,228.18,412.89z"/>
	<path class="st5" d="M217.23,409.48c-12.32,12.38-32.35,12.44-44.74,0.11l-14.45,14.53c20.41,20.31,53.41,20.22,73.72-0.18
		s20.22-53.41-0.18-73.72l-14.45,14.53C229.5,377.07,229.55,397.1,217.23,409.48z"/>
</g>
<g>
	<path class="st4" d="M1435.61,308.99c-17.45,0.94-32.35-12.44-33.29-29.89l-20.46,1.1c1.55,28.75,26.1,50.8,54.85,49.25
		c28.75-1.55,50.8-26.1,49.25-54.85l-20.46,1.1C1466.44,293.15,1453.06,308.05,1435.61,308.99z"/>
	<path class="st5" d="M1444.43,308.98c-17.45,0.94-32.35-12.44-33.29-29.89l-20.46,1.1c1.55,28.75,26.1,50.8,54.85,49.25
		c28.75-1.55,50.8-26.1,49.25-54.85l-20.46,1.1C1475.26,293.14,1461.87,308.04,1444.43,308.98z"/>
</g>
<g>
	<path class="st2" d="M1230.16,633.23l16.33-5.52c-0.54-1.59-0.82-3.4-1.16-5.65c-0.92-6.07-2.18-14.37-11.18-21.8
		c-9-7.43-17.4-7.08-23.53-6.83c-5.12,0.21-7.93,0.32-11.85-2.9c-3.91-3.23-4.34-6.02-5.1-11.08c-0.92-6.07-2.18-14.37-11.18-21.8
		c-9-7.43-17.4-7.08-23.53-6.83c-5.12,0.21-7.93,0.32-11.85-2.9s-4.34-6.02-5.1-11.08c-0.41-2.72-0.9-5.89-2.11-9.23l-16.34,5.53
		c0.71,1.75,1.01,3.73,1.4,6.29c0.92,6.07,2.18,14.37,11.18,21.8c9,7.43,17.4,7.08,23.53,6.83c5.12-0.21,7.93-0.32,11.85,2.9
		c3.91,3.23,4.34,6.02,5.1,11.08c0.92,6.07,2.18,14.37,11.18,21.8c9,7.43,17.4,7.08,23.53,6.83c5.12-0.21,7.93-0.32,11.85,2.9
		c3.91,3.23,4.34,6.02,5.1,11.08C1228.66,627.18,1229.11,630.12,1230.16,633.23z"/>
	<path class="st3" d="M1221.97,635.48l16.33-5.52c-0.54-1.59-0.82-3.4-1.16-5.65c-0.92-6.07-2.18-14.37-11.18-21.8
		c-9-7.43-17.4-7.08-23.53-6.83c-5.12,0.21-7.93,0.32-11.85-2.9c-3.91-3.23-4.34-6.02-5.1-11.08c-0.92-6.07-2.18-14.37-11.18-21.8
		c-9-7.43-17.4-7.08-23.53-6.83c-5.12,0.21-7.93,0.32-11.85-2.9s-4.34-6.02-5.1-11.08c-0.41-2.72-0.9-5.89-2.11-9.23l-16.34,5.53
		c0.71,1.75,1.01,3.73,1.4,6.29c0.92,6.07,2.18,14.37,11.18,21.8c9,7.43,17.4,7.08,23.53,6.83c5.12-0.21,7.93-0.32,11.85,2.9
		c3.91,3.23,4.34,6.02,5.1,11.08c0.92,6.07,2.18,14.37,11.18,21.8s17.4,7.08,23.53,6.83c5.12-0.21,7.93-0.32,11.85,2.9
		c3.91,3.23,4.34,6.02,5.1,11.08C1220.47,629.43,1220.92,632.37,1221.97,635.48z"/>
</g>
<g>
	<path class="st15" d="M266.33,717.89l5.51-16.33c-1.6-0.53-3.2-1.41-5.2-2.5c-5.38-2.95-12.75-6.98-24.11-4.33
		s-16.18,9.54-19.7,14.57c-2.94,4.2-4.55,6.51-9.49,7.66c-4.94,1.15-7.41-0.2-11.9-2.66c-5.38-2.95-12.75-6.98-24.11-4.33
		c-11.36,2.66-16.18,9.54-19.7,14.57c-2.94,4.2-4.55,6.51-9.49,7.66c-4.94,1.15-7.41-0.2-11.91-2.66c-2.41-1.32-5.23-2.86-8.62-3.91
		l-5.51,16.34c1.82,0.5,3.58,1.46,5.85,2.7c5.38,2.95,12.75,6.98,24.12,4.32s16.18-9.54,19.7-14.57c2.94-4.2,4.55-6.51,9.49-7.66
		c4.94-1.15,7.41,0.2,11.9,2.66c5.38,2.95,12.75,6.98,24.11,4.33c11.36-2.66,16.18-9.54,19.7-14.57c2.94-4.2,4.55-6.51,9.49-7.66
		c4.94-1.15,7.41,0.2,11.9,2.66C260.61,715.43,263.23,716.85,266.33,717.89z"/>
	<path class="st16" d="M266.33,708.76l5.51-16.33c-1.6-0.53-3.2-1.41-5.2-2.5c-5.38-2.95-12.75-6.98-24.11-4.33
		c-11.36,2.66-16.18,9.54-19.7,14.57c-2.94,4.2-4.55,6.51-9.49,7.66c-4.94,1.15-7.41-0.2-11.9-2.66
		c-5.38-2.95-12.75-6.98-24.11-4.33c-11.36,2.66-16.18,9.54-19.7,14.57c-2.94,4.2-4.55,6.51-9.49,7.66
		c-4.94,1.15-7.41-0.2-11.91-2.66c-2.41-1.32-5.23-2.86-8.62-3.91l-5.51,16.34c1.82,0.5,3.58,1.46,5.85,2.7
		c5.38,2.95,12.75,6.98,24.12,4.32c11.36-2.66,16.18-9.54,19.7-14.57c2.94-4.2,4.55-6.51,9.49-7.66c4.94-1.15,7.41,0.2,11.9,2.66
		c5.38,2.95,12.75,6.98,24.11,4.33c11.36-2.66,16.18-9.54,19.7-14.57c2.94-4.2,4.55-6.51,9.49-7.66c4.94-1.15,7.41,0.2,11.9,2.66
		C260.61,706.29,263.23,707.71,266.33,708.76z"/>
</g>
<g>
	<path class="st4" d="M903.63,457.51l86.24-83.12l-115.11-33.13L903.63,457.51z M913.42,423.51l-14.1-56.78l56.22,16.18
		L913.42,423.51z"/>
	<path class="st5" d="M911.38,452.72l86.24-83.12l-115.11-33.13L911.38,452.72z M921.17,418.72l-14.1-56.78l56.22,16.18
		L921.17,418.72z"/>
</g>
<g>
	<path class="st8" d="M1829.13,2029.52l17.86-118.44l-111.5,43.76L1829.13,2029.52z M1816.2,1996.59l-45.74-36.48l54.46-21.37
		L1816.2,1996.59z"/>
	<path class="st9" d="M1832.36,2021.01l17.86-118.44l-111.5,43.76L1832.36,2021.01z M1819.44,1988.08l-45.74-36.48l54.46-21.37
		L1819.44,1988.08z"/>
</g>
<g class="st0">
	<path class="st17" d="M771.68,653.12l-59.89,103.73h119.78L771.68,653.12z M771.68,688.5l29.25,50.66h-58.5L771.68,688.5z"/>
	<path class="st18" d="M776.68,658.74l-59.89,103.73h119.78L776.68,658.74z M776.68,694.12l29.25,50.66h-58.5L776.68,694.12z"/>
</g>
<g>
	<circle class="st19" cx="766.31" cy="734.23" r="3"/>
	<circle class="st19" cx="727.22" cy="725.71" r="3"/>
	<circle class="st19" cx="746.77" cy="729.97" r="3"/>
	<circle class="st19" cx="707.68" cy="721.46" r="3"/>
	<circle class="st19" cx="688.14" cy="717.2" r="3"/>
</g>
<g>
	<circle class="st15" cx="154.63" cy="708.13" r="3"/>
	<circle class="st15" cx="138.31" cy="744.65" r="3"/>
	<circle class="st15" cx="146.47" cy="726.39" r="3"/>
	<circle class="st15" cx="130.15" cy="762.91" r="3"/>
	<circle class="st15" cx="121.99" cy="781.17" r="3"/>
</g>
<g>
	<circle class="st20" cx="714.65" cy="1174.04" r="3"/>
	<circle class="st20" cx="724.22" cy="1191.6" r="3"/>
	<circle class="st20" cx="706.66" cy="1201.17" r="3"/>
	<circle class="st20" cx="697.09" cy="1183.61" r="3"/>
</g>
<g>
	<circle class="st10" cx="229" cy="1255.24" r="3"/>
	<circle class="st10" cx="225.05" cy="1274.85" r="3"/>
	<circle class="st10" cx="205.44" cy="1270.9" r="3"/>
	<circle class="st10" cx="209.39" cy="1251.29" r="3"/>
</g>
<g>
	<circle class="st4" cx="1302.9" cy="180.09" r="3"/>
	<circle class="st4" cx="1298.95" cy="199.69" r="3"/>
	<circle class="st4" cx="1279.35" cy="195.74" r="3"/>
	<circle class="st4" cx="1283.3" cy="176.14" r="3"/>
</g>
<g>
	<circle class="st21" cx="1429.51" cy="685.87" r="3"/>
	<circle class="st21" cx="1439.18" cy="668.36" r="3"/>
	<circle class="st21" cx="1454.86" cy="722.71" r="3"/>
	<circle class="st21" cx="1456.69" cy="678.03" r="3"/>
	<circle class="st21" cx="1437.35" cy="713.05" r="3"/>
	<circle class="st21" cx="1447.02" cy="695.54" r="3"/>
</g>
<g>
	<circle class="st8" cx="208.46" cy="1796.53" r="3"/>
	<circle class="st8" cx="218.13" cy="1779.02" r="3"/>
	<circle class="st8" cx="233.81" cy="1833.37" r="3"/>
	<circle class="st8" cx="235.64" cy="1788.69" r="3"/>
	<circle class="st8" cx="216.3" cy="1823.71" r="3"/>
	<circle class="st8" cx="225.97" cy="1806.2" r="3"/>
</g>
<g>
	<circle class="st22" cx="414.12" cy="849.66" r="3"/>
	<circle class="st22" cx="397.6" cy="860.94" r="3"/>
	<circle class="st22" cx="381.09" cy="872.23" r="3"/>
</g>
<g>
	<circle class="st8" cx="1475.37" cy="2100.37" r="3"/>
	<circle class="st8" cx="1486.74" cy="2116.82" r="3"/>
	<circle class="st8" cx="1498.11" cy="2133.27" r="3"/>
</g>
<g>
	<circle class="st13" cx="1108.5" cy="976.16" r="3"/>
	<circle class="st13" cx="1096.51" cy="960.15" r="3"/>
	<circle class="st13" cx="1120.5" cy="992.16" r="3"/>
	<circle class="st13" cx="1112.51" cy="948.16" r="3"/>
	<circle class="st13" cx="1136.5" cy="980.16" r="3"/>
	<circle class="st13" cx="1124.5" cy="964.16" r="3"/>
</g>
<g>
	<circle class="st13" cx="1447.3" cy="961.81" r="3"/>
	<circle class="st13" cx="1466.98" cy="958.26" r="3"/>
	<circle class="st13" cx="1470.53" cy="977.94" r="3"/>
	<circle class="st13" cx="1450.85" cy="981.49" r="3"/>
</g>
<g>
	<circle class="st4" cx="462.74" cy="386.99" r="3"/>
	<circle class="st4" cx="481.86" cy="392.86" r="3"/>
	<circle class="st4" cx="470.12" cy="431.1" r="3"/>
	<circle class="st4" cx="475.99" cy="411.98" r="3"/>
	<circle class="st4" cx="464.25" cy="450.22" r="3"/>
	<circle class="st4" cx="456.87" cy="406.11" r="3"/>
	<circle class="st4" cx="445.14" cy="444.35" r="3"/>
	<circle class="st4" cx="451" cy="425.23" r="3"/>
	<circle class="st4" cx="489.24" cy="436.97" r="3"/>
	<circle class="st4" cx="483.37" cy="456.09" r="3"/>
	<circle class="st4" cx="495.11" cy="417.85" r="3"/>
	<circle class="st4" cx="500.98" cy="398.73" r="3"/>
</g>
<g>
	<circle class="st23" cx="707.88" cy="1441.17" r="3"/>
	<circle class="st23" cx="675.75" cy="1464.99" r="3"/>
	<circle class="st23" cx="691.81" cy="1453.08" r="3"/>
	<circle class="st23" cx="659.68" cy="1476.9" r="3"/>
	<circle class="st23" cx="643.61" cy="1488.81" r="3"/>
</g>
<g>
	<circle class="st24" cx="1791.38" cy="899.82" r="3"/>
	<circle class="st24" cx="1816.76" cy="868.9" r="3"/>
	<circle class="st24" cx="1804.07" cy="884.36" r="3"/>
	<circle class="st24" cx="1801.31" cy="856.21" r="3"/>
	<circle class="st24" cx="1775.92" cy="887.13" r="3"/>
	<circle class="st24" cx="1788.62" cy="871.67" r="3"/>
	<circle class="st24" cx="1785.85" cy="843.52" r="3"/>
	<circle class="st24" cx="1798.54" cy="828.06" r="3"/>
	<circle class="st24" cx="1773.16" cy="858.98" r="3"/>
	<circle class="st24" cx="1760.47" cy="874.44" r="3"/>
</g>
<g>
	<circle class="st4" cx="58.26" cy="90.49" r="3"/>
	<circle class="st4" cx="91.84" cy="112.22" r="3"/>
	<circle class="st4" cx="75.05" cy="101.36" r="3"/>
	<circle class="st4" cx="102.71" cy="95.43" r="3"/>
	<circle class="st4" cx="69.13" cy="73.7" r="3"/>
	<circle class="st4" cx="85.92" cy="84.57" r="3"/>
	<circle class="st4" cx="113.58" cy="78.64" r="3"/>
	<circle class="st4" cx="130.37" cy="89.51" r="3"/>
	<circle class="st4" cx="96.79" cy="67.78" r="3"/>
	<circle class="st4" cx="79.99" cy="56.91" r="3"/>
</g>
<g>
	<circle class="st8" cx="1275.43" cy="1920.9" r="3"/>
	<circle class="st8" cx="1300.82" cy="1889.99" r="3"/>
	<circle class="st8" cx="1288.12" cy="1905.44" r="3"/>
	<circle class="st8" cx="1285.36" cy="1877.3" r="3"/>
	<circle class="st8" cx="1259.98" cy="1908.21" r="3"/>
	<circle class="st8" cx="1272.67" cy="1892.75" r="3"/>
	<circle class="st8" cx="1269.9" cy="1864.6" r="3"/>
	<circle class="st8" cx="1282.59" cy="1849.15" r="3"/>
	<circle class="st8" cx="1257.21" cy="1880.06" r="3"/>
	<circle class="st8" cx="1244.52" cy="1895.52" r="3"/>
</g>
<g>
	<circle class="st25" cx="1705.14" cy="478.14" r="3"/>
	<circle class="st25" cx="1715.34" cy="495.34" r="3"/>
	<circle class="st25" cx="1680.94" cy="515.74" r="3"/>
	<circle class="st25" cx="1698.14" cy="505.54" r="3"/>
	<circle class="st25" cx="1663.74" cy="525.94" r="3"/>
	<circle class="st25" cx="1687.94" cy="488.34" r="3"/>
	<circle class="st25" cx="1653.53" cy="508.74" r="3"/>
	<circle class="st25" cx="1670.74" cy="498.54" r="3"/>
	<circle class="st25" cx="1691.14" cy="532.94" r="3"/>
	<circle class="st25" cx="1673.94" cy="543.15" r="3"/>
	<circle class="st25" cx="1708.34" cy="522.74" r="3"/>
	<circle class="st25" cx="1725.55" cy="512.54" r="3"/>
</g>
<g>
	<circle class="st8" cx="239.9" cy="2089.41" r="3"/>
	<circle class="st8" cx="257.45" cy="2079.82" r="3"/>
	<circle class="st8" cx="276.63" cy="2114.92" r="3"/>
	<circle class="st8" cx="267.04" cy="2097.37" r="3"/>
	<circle class="st8" cx="286.23" cy="2132.47" r="3"/>
	<circle class="st8" cx="249.49" cy="2106.96" r="3"/>
	<circle class="st8" cx="268.67" cy="2142.06" r="3"/>
	<circle class="st8" cx="259.08" cy="2124.51" r="3"/>
	<circle class="st8" cx="294.19" cy="2105.33" r="3"/>
	<circle class="st8" cx="303.78" cy="2122.88" r="3"/>
	<circle class="st8" cx="284.59" cy="2087.78" r="3"/>
	<circle class="st8" cx="275" cy="2070.23" r="3"/>
</g>
<g>
	<path class="st8" d="M1482.88,1561.44l-8.7-14.88c-1.45,0.85-3.16,1.49-5.3,2.28c-5.76,2.12-13.64,5.03-19.1,15.34
		c-5.46,10.31-3.43,18.47-1.95,24.42c1.24,4.97,1.92,7.71-0.46,12.19c-2.37,4.48-5.02,5.46-9.82,7.23
		c-5.76,2.12-13.64,5.03-19.1,15.35c-5.46,10.31-3.43,18.47-1.95,24.42c1.24,4.97,1.92,7.71-0.46,12.19
		c-2.37,4.48-5.02,5.46-9.82,7.23c-2.58,0.95-5.59,2.07-8.61,3.93l8.71,14.89c1.57-1.05,3.45-1.74,5.88-2.64
		c5.76-2.12,13.64-5.03,19.1-15.35c5.46-10.31,3.43-18.47,1.95-24.42c-1.24-4.97-1.92-7.71,0.46-12.19
		c2.37-4.48,5.02-5.46,9.82-7.23c5.76-2.12,13.64-5.03,19.1-15.35c5.46-10.31,3.43-18.47,1.95-24.42
		c-1.24-4.97-1.92-7.71,0.46-12.19c2.37-4.48,5.02-5.46,9.82-7.23C1477.27,1564.13,1480.06,1563.09,1482.88,1561.44z"/>
	<path class="st9" d="M1486.74,1569.01l-8.7-14.88c-1.45,0.85-3.16,1.49-5.3,2.28c-5.76,2.12-13.64,5.03-19.1,15.34
		c-5.46,10.31-3.43,18.47-1.95,24.42c1.24,4.97,1.92,7.71-0.46,12.19c-2.37,4.48-5.02,5.46-9.82,7.23
		c-5.76,2.12-13.64,5.03-19.1,15.35c-5.46,10.31-3.43,18.47-1.95,24.42c1.24,4.97,1.92,7.71-0.46,12.19
		c-2.37,4.48-5.02,5.46-9.82,7.23c-2.58,0.95-5.59,2.07-8.61,3.93l8.71,14.89c1.57-1.05,3.45-1.74,5.88-2.64
		c5.76-2.12,13.64-5.03,19.1-15.35c5.46-10.31,3.43-18.47,1.95-24.42c-1.24-4.97-1.92-7.71,0.46-12.19
		c2.37-4.48,5.02-5.46,9.82-7.23c5.76-2.12,13.64-5.03,19.1-15.35c5.46-10.31,3.43-18.47,1.95-24.42
		c-1.24-4.97-1.92-7.71,0.46-12.19c2.37-4.48,5.02-5.46,9.82-7.23C1481.12,1571.7,1483.91,1570.66,1486.74,1569.01z"/>
</g>
<g>
	<path class="st8" d="M-60.43,2026.75l-3.7,16.83c1.65,0.36,3.33,1.05,5.44,1.92c5.67,2.34,13.44,5.55,24.44,1.67
		c11.01-3.88,15.05-11.25,17.99-16.63c2.46-4.49,3.82-6.96,8.6-8.65c4.78-1.69,7.39-0.61,12.12,1.35
		c5.67,2.34,13.44,5.55,24.44,1.67c11.01-3.88,15.05-11.25,18-16.63c2.46-4.49,3.82-6.96,8.6-8.65c4.78-1.69,7.39-0.61,12.12,1.35
		c2.54,1.05,5.51,2.27,8.99,2.95l3.7-16.85c-1.86-0.3-3.71-1.06-6.11-2.05c-5.67-2.34-13.44-5.55-24.44-1.67
		c-11.01,3.88-15.05,11.25-18,16.63c-2.46,4.49-3.82,6.96-8.6,8.65c-4.78,1.69-7.39,0.61-12.12-1.35
		c-5.67-2.34-13.44-5.55-24.44-1.67c-11.01,3.88-15.05,11.25-17.99,16.63c-2.46,4.49-3.82,6.96-8.6,8.65
		c-4.78,1.69-7.39,0.61-12.12-1.35C-54.47,2028.58-57.23,2027.45-60.43,2026.75z"/>
	<path class="st9" d="M-58.12,2018.57l-3.7,16.83c1.65,0.36,3.33,1.05,5.44,1.92c5.67,2.34,13.44,5.55,24.44,1.67
		s15.05-11.25,17.99-16.63c2.46-4.49,3.82-6.96,8.6-8.65c4.78-1.69,7.39-0.61,12.12,1.35c5.67,2.34,13.44,5.55,24.44,1.67
		c11.01-3.88,15.05-11.25,18-16.63c2.46-4.49,3.82-6.96,8.6-8.65s7.39-0.61,12.12,1.35c2.54,1.05,5.51,2.27,8.99,2.95l3.7-16.85
		c-1.86-0.3-3.71-1.06-6.11-2.05c-5.67-2.34-13.44-5.55-24.44-1.67s-15.05,11.25-18,16.63c-2.46,4.49-3.82,6.96-8.6,8.65
		c-4.78,1.69-7.39,0.61-12.12-1.35c-5.67-2.34-13.44-5.55-24.44-1.67s-15.05,11.25-17.99,16.63c-2.46,4.49-3.82,6.96-8.6,8.65
		c-4.78,1.69-7.39,0.61-12.12-1.35C-52.17,2020.4-54.92,2019.27-58.12,2018.57z"/>
</g>
<g>
	<circle class="st8" cx="803.31" cy="1665.27" r="3"/>
	<circle class="st8" cx="792.86" cy="1682.33" r="3"/>
	<circle class="st8" cx="775.81" cy="1671.89" r="3"/>
	<circle class="st8" cx="786.25" cy="1654.83" r="3"/>
</g>
<g>
	<circle class="st8" cx="10.06" cy="1557.05" r="3"/>
	<circle class="st8" cx="29.5" cy="1561.78" r="3"/>
	<circle class="st8" cx="20.05" cy="1600.65" r="3"/>
	<circle class="st8" cx="24.77" cy="1581.21" r="3"/>
	<circle class="st8" cx="15.32" cy="1620.08" r="3"/>
	<circle class="st8" cx="5.34" cy="1576.49" r="3"/>
	<circle class="st8" cx="-4.11" cy="1615.36" r="3"/>
	<circle class="st8" cx="0.61" cy="1595.92" r="3"/>
	<circle class="st8" cx="39.48" cy="1605.37" r="3"/>
	<circle class="st8" cx="34.75" cy="1624.81" r="3"/>
	<circle class="st8" cx="44.21" cy="1585.94" r="3"/>
	<circle class="st8" cx="48.93" cy="1566.51" r="3"/>
</g>
<g>
	<circle class="st8" cx="1727.93" cy="1567.86" r="3"/>
	<circle class="st8" cx="1691.49" cy="1584.35" r="3"/>
	<circle class="st8" cx="1709.71" cy="1576.11" r="3"/>
	<circle class="st8" cx="1673.27" cy="1592.6" r="3"/>
	<circle class="st8" cx="1655.05" cy="1600.85" r="3"/>
</g>
<g>
	<circle class="st4" cx="947.57" cy="47.63" r="3"/>
	<circle class="st4" cx="960.01" cy="85.64" r="3"/>
	<circle class="st4" cx="953.79" cy="66.63" r="3"/>
	<circle class="st4" cx="966.23" cy="104.65" r="3"/>
	<circle class="st4" cx="972.45" cy="123.66" r="3"/>
</g>
</svg>
