<?xml version="1.0" encoding="utf-8"?>
<!-- Generator: Adobe Illustrator 24.2.3, SVG Export Plug-In . SVG Version: 6.00 Build 0)  -->
<svg version="1.1" id="Layer_1" xmlns="http://www.w3.org/2000/svg" xmlns:xlink="http://www.w3.org/1999/xlink" x="0px" y="0px"
	 viewBox="0 0 90 90" style="enable-background:new 0 0 90 90;" xml:space="preserve">
<style type="text/css">
	.st0{display:none;fill:url(#dots_2_);}
	.st1{fill:#4036B1;}
</style>
<linearGradient id="dots_2_" gradientUnits="userSpaceOnUse" x1="-26.5" y1="519" x2="-26.5" y2="-385">
	<stop  offset="0" style="stop-color:#555ED7"/>
	<stop  offset="1" style="stop-color:#E3A5EE"/>
</linearGradient>
<path id="dots_1_" class="st0" d="M871.5,517c0,1.1,0.9,2,2,2s2-0.9,2-2s-0.9-2-2-2S871.5,515.9,871.5,517z M691.5,517
	c0,1.1,0.9,2,2,2s2-0.9,2-2s-0.9-2-2-2S691.5,515.9,691.5,517z M511.5,517c0,1.1,0.9,2,2,2s2-0.9,2-2s-0.9-2-2-2
	S511.5,515.9,511.5,517z M331.5,517c0,1.1,0.9,2,2,2s2-0.9,2-2s-0.9-2-2-2S331.5,515.9,331.5,517z M151.5,517c0,1.1,0.9,2,2,2
	s2-0.9,2-2s-0.9-2-2-2S151.5,515.9,151.5,517z M-28.5,517c0,1.1,0.9,2,2,2s2-0.9,2-2s-0.9-2-2-2S-28.5,515.9-28.5,517z M-208.5,517
	c0,1.1,0.9,2,2,2s2-0.9,2-2s-0.9-2-2-2S-208.5,515.9-208.5,517z M-388.5,517c0,1.1,0.9,2,2,2s2-0.9,2-2s-0.9-2-2-2
	S-388.5,515.9-388.5,517z M-568.5,517c0,1.1,0.9,2,2,2s2-0.9,2-2s-0.9-2-2-2S-568.5,515.9-568.5,517z M-748.5,517c0,1.1,0.9,2,2,2
	s2-0.9,2-2s-0.9-2-2-2S-748.5,515.9-748.5,517z M-928.5,517c0,1.1,0.9,2,2,2s2-0.9,2-2s-0.9-2-2-2S-928.5,515.9-928.5,517z
	 M871.5,337c0,1.1,0.9,2,2,2s2-0.9,2-2s-0.9-2-2-2S871.5,335.9,871.5,337z M691.5,337c0,1.1,0.9,2,2,2s2-0.9,2-2s-0.9-2-2-2
	S691.5,335.9,691.5,337z M511.5,337c0,1.1,0.9,2,2,2s2-0.9,2-2s-0.9-2-2-2S511.5,335.9,511.5,337z M331.5,337c0,1.1,0.9,2,2,2
	s2-0.9,2-2s-0.9-2-2-2S331.5,335.9,331.5,337z M151.5,337c0,1.1,0.9,2,2,2s2-0.9,2-2s-0.9-2-2-2S151.5,335.9,151.5,337z M-28.5,337
	c0,1.1,0.9,2,2,2s2-0.9,2-2s-0.9-2-2-2S-28.5,335.9-28.5,337z M-208.5,337c0,1.1,0.9,2,2,2s2-0.9,2-2s-0.9-2-2-2
	S-208.5,335.9-208.5,337z M-388.5,337c0,1.1,0.9,2,2,2s2-0.9,2-2s-0.9-2-2-2S-388.5,335.9-388.5,337z M-568.5,337c0,1.1,0.9,2,2,2
	s2-0.9,2-2s-0.9-2-2-2S-568.5,335.9-568.5,337z M-748.5,337c0,1.1,0.9,2,2,2s2-0.9,2-2s-0.9-2-2-2S-748.5,335.9-748.5,337z
	 M-928.5,337c0,1.1,0.9,2,2,2s2-0.9,2-2s-0.9-2-2-2S-928.5,335.9-928.5,337z M871.5,157c0,1.1,0.9,2,2,2s2-0.9,2-2s-0.9-2-2-2
	S871.5,155.9,871.5,157z M691.5,157c0,1.1,0.9,2,2,2s2-0.9,2-2s-0.9-2-2-2S691.5,155.9,691.5,157z M511.5,157c0,1.1,0.9,2,2,2
	s2-0.9,2-2s-0.9-2-2-2S511.5,155.9,511.5,157z M331.5,157c0,1.1,0.9,2,2,2s2-0.9,2-2s-0.9-2-2-2S331.5,155.9,331.5,157z M151.5,157
	c0,1.1,0.9,2,2,2s2-0.9,2-2s-0.9-2-2-2S151.5,155.9,151.5,157z M-28.5,157c0,1.1,0.9,2,2,2s2-0.9,2-2s-0.9-2-2-2
	S-28.5,155.9-28.5,157z M-208.5,157c0,1.1,0.9,2,2,2s2-0.9,2-2s-0.9-2-2-2S-208.5,155.9-208.5,157z M-388.5,157c0,1.1,0.9,2,2,2
	s2-0.9,2-2s-0.9-2-2-2S-388.5,155.9-388.5,157z M-568.5,157c0,1.1,0.9,2,2,2s2-0.9,2-2s-0.9-2-2-2S-568.5,155.9-568.5,157z
	 M-748.5,157c0,1.1,0.9,2,2,2s2-0.9,2-2s-0.9-2-2-2S-748.5,155.9-748.5,157z M-928.5,157c0,1.1,0.9,2,2,2s2-0.9,2-2s-0.9-2-2-2
	S-928.5,155.9-928.5,157z M871.5-23c0,1.1,0.9,2,2,2s2-0.9,2-2s-0.9-2-2-2S871.5-24.1,871.5-23z M691.5-23c0,1.1,0.9,2,2,2
	s2-0.9,2-2s-0.9-2-2-2S691.5-24.1,691.5-23z M511.5-23c0,1.1,0.9,2,2,2s2-0.9,2-2s-0.9-2-2-2S511.5-24.1,511.5-23z M331.5-23
	c0,1.1,0.9,2,2,2s2-0.9,2-2s-0.9-2-2-2S331.5-24.1,331.5-23z M151.5-23c0,1.1,0.9,2,2,2s2-0.9,2-2s-0.9-2-2-2S151.5-24.1,151.5-23z
	 M-28.5-23c0,1.1,0.9,2,2,2s2-0.9,2-2s-0.9-2-2-2S-28.5-24.1-28.5-23z M-208.5-23c0,1.1,0.9,2,2,2s2-0.9,2-2s-0.9-2-2-2
	S-208.5-24.1-208.5-23z M-388.5-23c0,1.1,0.9,2,2,2s2-0.9,2-2s-0.9-2-2-2S-388.5-24.1-388.5-23z M-568.5-23c0,1.1,0.9,2,2,2
	s2-0.9,2-2s-0.9-2-2-2S-568.5-24.1-568.5-23z M-748.5-23c0,1.1,0.9,2,2,2s2-0.9,2-2s-0.9-2-2-2S-748.5-24.1-748.5-23z M-928.5-23
	c0,1.1,0.9,2,2,2s2-0.9,2-2s-0.9-2-2-2S-928.5-24.1-928.5-23z M871.5-203c0,1.1,0.9,2,2,2s2-0.9,2-2s-0.9-2-2-2
	S871.5-204.1,871.5-203z M691.5-203c0,1.1,0.9,2,2,2s2-0.9,2-2s-0.9-2-2-2S691.5-204.1,691.5-203z M511.5-203c0,1.1,0.9,2,2,2
	s2-0.9,2-2s-0.9-2-2-2S511.5-204.1,511.5-203z M331.5-203c0,1.1,0.9,2,2,2s2-0.9,2-2s-0.9-2-2-2S331.5-204.1,331.5-203z M151.5-203
	c0,1.1,0.9,2,2,2s2-0.9,2-2s-0.9-2-2-2S151.5-204.1,151.5-203z M-28.5-203c0,1.1,0.9,2,2,2s2-0.9,2-2s-0.9-2-2-2
	S-28.5-204.1-28.5-203z M-208.5-203c0,1.1,0.9,2,2,2s2-0.9,2-2s-0.9-2-2-2S-208.5-204.1-208.5-203z M-388.5-203c0,1.1,0.9,2,2,2
	s2-0.9,2-2s-0.9-2-2-2S-388.5-204.1-388.5-203z M-568.5-203c0,1.1,0.9,2,2,2s2-0.9,2-2s-0.9-2-2-2S-568.5-204.1-568.5-203z
	 M-748.5-203c0,1.1,0.9,2,2,2s2-0.9,2-2s-0.9-2-2-2S-748.5-204.1-748.5-203z M-928.5-203c0,1.1,0.9,2,2,2s2-0.9,2-2s-0.9-2-2-2
	S-928.5-204.1-928.5-203z M871.5-383c0,1.1,0.9,2,2,2s2-0.9,2-2s-0.9-2-2-2S871.5-384.1,871.5-383z M691.5-383c0,1.1,0.9,2,2,2
	s2-0.9,2-2s-0.9-2-2-2S691.5-384.1,691.5-383z M511.5-383c0,1.1,0.9,2,2,2s2-0.9,2-2s-0.9-2-2-2S511.5-384.1,511.5-383z M331.5-383
	c0,1.1,0.9,2,2,2s2-0.9,2-2s-0.9-2-2-2S331.5-384.1,331.5-383z M151.5-383c0,1.1,0.9,2,2,2s2-0.9,2-2s-0.9-2-2-2
	S151.5-384.1,151.5-383z M-28.5-383c0,1.1,0.9,2,2,2s2-0.9,2-2s-0.9-2-2-2S-28.5-384.1-28.5-383z M-208.5-383c0,1.1,0.9,2,2,2
	s2-0.9,2-2s-0.9-2-2-2S-208.5-384.1-208.5-383z M-388.5-383c0,1.1,0.9,2,2,2s2-0.9,2-2s-0.9-2-2-2S-388.5-384.1-388.5-383z
	 M-568.5-383c0,1.1,0.9,2,2,2s2-0.9,2-2s-0.9-2-2-2S-568.5-384.1-568.5-383z M-748.5-383c0,1.1,0.9,2,2,2s2-0.9,2-2s-0.9-2-2-2
	S-748.5-384.1-748.5-383z M-928.5-383c0,1.1,0.9,2,2,2s2-0.9,2-2s-0.9-2-2-2S-928.5-384.1-928.5-383z"/>
<rect x="-1204.69" y="-481.44" class="st1" width="164.2" height="150.52"/>
<circle class="st1" cx="45" cy="45" r="1.5"/>
</svg>
